<svg width="512" height="362" viewBox="0 0 512 362" fill="none" xmlns="http://www.w3.org/2000/svg">
    <path fill-rule="evenodd" clip-rule="evenodd"
        d="M23.2844 2.18024C17.8271 -1.63691 10.3054 -0.312042 6.48419 5.13941C2.66296 10.5909 3.98923 18.1045 9.44652 21.9217L13.0382 24.4339C5.05427 31.3087 0 41.485 0 52.8405V315.261C0 335.966 16.8022 352.75 37.5288 352.75H474.471C476.87 352.75 479.215 352.525 481.489 352.095L492.532 359.82C497.989 363.637 505.511 362.312 509.332 356.861C513.153 351.409 511.827 343.895 506.37 340.078L500.012 335.631C499.821 335.45 499.614 335.281 499.391 335.125L43.6035 16.3204C43.3847 16.1674 43.1558 16.0316 42.9188 15.9137L23.2844 2.18024ZM319.293 238.647L423.564 311.58C422.645 312.953 421.095 313.922 419.126 313.922H46.583C41.9898 313.922 39.5233 308.529 42.5302 305.061L143.943 188.079C145.874 185.851 149.244 185.601 151.485 187.519L265.634 285.256C267.761 287.077 270.933 286.955 272.914 284.977L319.293 238.647Z"
        fill="#ffffff40" />
    <path fill-rule="evenodd" clip-rule="evenodd"
        d="M512 304.236C512 308.569 507.117 311.108 503.564 308.623L98.2093 25.0944C93.9158 22.0913 96.043 15.3519 101.284 15.3519H474.471C495.198 15.3519 512 32.1361 512 52.8405V304.236ZM454.366 125.14C454.366 136.971 444.765 146.562 432.921 146.562C421.078 146.562 411.476 136.971 411.476 125.14C411.476 113.309 421.078 103.718 432.921 103.718C444.765 103.718 454.366 113.309 454.366 125.14Z"
        fill="#ffffff40" />
</svg>