<svg width="222" height="256" viewBox="0 0 222 256" fill="none" xmlns="http://www.w3.org/2000/svg">
<path d="M144.575 191C140.156 191 136.575 187.418 136.575 183V110C136.575 105.582 140.156 102 144.575 102C148.993 102 152.575 105.582 152.575 110V183C152.575 187.418 148.993 191 144.575 191Z" fill="white"/>
<path d="M70.5635 183C70.5635 187.418 74.1452 191 78.5635 191C82.9818 191 86.5635 187.418 86.5635 183V110C86.5635 105.582 82.9818 102 78.5635 102C74.1452 102 70.5635 105.582 70.5635 110V183Z" fill="white"/>
<path fill-rule="evenodd" clip-rule="evenodd" d="M168.838 37L168.8 36.8998C163.673 23.5882 161.11 16.9325 156.737 12.0313C152.873 7.70125 148.019 4.36946 142.59 2.31988C136.445 0 129.312 0 115.048 0H107.952C93.6877 0 86.5554 0 80.41 2.31988C74.9806 4.36946 70.1272 7.70124 66.2633 12.0313C61.8899 16.9325 59.3267 23.5882 54.2003 36.8997L54.1617 37H8C3.58172 37 0 40.5817 0 45C0 49.4183 3.58172 53 8 53H21.3333C20.2142 54.6749 19.232 56.4493 18.4013 58.3075C14.7042 66.5775 15.4852 77.3115 17.0471 98.7797L25.6024 216.367C26.0275 222.21 26.2401 225.132 26.7735 227.601C29.9586 242.345 41.9977 253.54 56.9339 255.647C59.4355 256 62.365 256 68.2239 256H141.09C159.967 256 169.405 256 176.817 252.425C183.343 249.277 188.767 244.233 192.38 237.953C196.484 230.82 197.169 221.406 198.538 202.58L206.09 98.7797C207.652 77.3116 208.433 66.5775 204.736 58.3075C203.906 56.4493 202.923 54.6749 201.804 53H214C218.418 53 222 49.4183 222 45C222 40.5817 218.418 37 214 37H168.838ZM115.048 16H107.952C92.3912 16 88.8165 16.2485 86.0607 17.2888C83.0444 18.4275 80.348 20.2785 78.2015 22.6841C76.5254 24.5624 75.174 27.2067 71.3259 37H151.674C147.826 27.2067 146.475 24.5624 144.799 22.6841C142.652 20.2785 139.956 18.4275 136.939 17.2888C134.183 16.2485 130.609 16 115.048 16ZM148.642 53H74.4953C63.4593 53 56.1749 53.0132 50.6218 53.4798C45.2426 53.9317 43.0357 54.7184 41.8007 55.3819C37.9051 57.475 34.813 60.8002 33.0081 64.8375C32.436 66.1174 31.8115 68.3755 31.7511 73.7734C31.6887 79.3456 32.2041 86.6117 33.0049 97.6186L41.5602 215.206C42.0239 221.58 42.1756 223.125 42.4128 224.223C44.1823 232.414 50.8706 238.634 59.1685 239.804C60.2808 239.961 61.8332 240 68.2239 240H141.09C150.782 240 157.122 239.988 161.99 239.603C166.663 239.233 168.668 238.591 169.865 238.014C173.491 236.265 176.504 233.463 178.511 229.974C179.174 228.822 179.96 226.868 180.668 222.235C181.406 217.407 181.877 211.085 182.581 201.419L190.133 97.6187C190.934 86.6118 191.449 79.3456 191.387 73.7734C191.326 68.3755 190.702 66.1174 190.13 64.8375C188.325 60.8002 185.233 57.475 181.337 55.3819C180.102 54.7184 177.895 53.9317 172.516 53.4798C166.963 53.0132 159.678 53 148.642 53Z" fill="white"/>
</svg>
